<svg xmlns="http://www.w3.org/2000/svg" width="200" height="200" viewBox="0 0 200 200">
  <defs>
    <linearGradient id="gold" x1="0%" y1="0%" x2="100%" y2="100%">
      <stop offset="0%" stop-color="#FFD76A"/>
      <stop offset="50%" stop-color="#FFC23B"/>
      <stop offset="100%" stop-color="#FFB000"/>
    </linearGradient>
    <filter id="shadow" x="-20%" y="-20%" width="140%" height="140%">
      <feDropShadow dx="0" dy="4" stdDeviation="6" flood-color="#000" flood-opacity="0.35"/>
    </filter>
  </defs>
  <rect width="200" height="200" rx="24" fill="#0B0F1A"/>
  <!-- Circular coin -->
  <circle cx="100" cy="100" r="66" fill="url(#gold)" filter="url(#shadow)"/>
  <!-- Eagle silhouette -->
  <path d="M60 120c28-30 52-44 80-44-14 6-24 16-28 28 14-6 26-6 40 0-24 8-40 26-48 46-8-14-22-24-44-30z"
        fill="#1a1200" opacity="0.25"/>
  <!-- GH monogram -->
  <path d="M78 116v-32h44v8h-28v8h20v8h-20v8h-16z" fill="#2b1a00" opacity="0.48"/>
  <circle cx="100" cy="100" r="58" fill="none" stroke="#3A2A0A" stroke-width="2"/>
</svg>
